<?xml version="1.0" encoding="UTF-8"?>
<svg id="_圖層_1" data-name=" 圖層 1" xmlns="http://www.w3.org/2000/svg" viewBox="0 0 149 76">
  <defs>
    <style>
      .cls-1 {
        fill: #dacfaf;
      }

      .cls-1, .cls-2, .cls-3, .cls-4, .cls-5 {
        stroke-width: 0px;
      }

      .cls-2 {
        fill: #000;
      }

      .cls-3 {
        fill: #e2e1d5;
      }

      .cls-4 {
        fill: #d2c8a9;
      }

      .cls-5 {
        fill: #e0dfd4;
      }
    </style>
  </defs>
  <path class="cls-5" d="M32.08,16.18c.95,1.47,2.59,3.59,5.22,5.4.6.42,1.55,1.02,3.09,1.74,2.9,1.35,6.22,2.33,10.44,2.89,1.82.25,6.9.83,13.92,0,1.26-.15,5.41-.68,12.37-2.7,8.56-2.49,11.15-4.28,17.78-6.56,3.63-1.25,10.61-3.57,18.55-4.24,3.96-.33,16.22-1.51,24.93,3.47,3.83,2.2,6.57,5.21,6.57,5.21,1.89,2.1,3.11,4.13,3.87,5.6-7.67,13.31-15.33,26.63-23,39.94-1.18-1.08-2.94-2.51-5.32-3.76-3.5-1.85-6.51-2.43-8.6-2.8-4.17-.75-7.4-.56-10.05-.39-4.72.29-8.14,1.16-11.98,2.12-1.06.27-5.59,1.43-11.4,3.67-1.86.71-2.01.83-4.25,1.74-2.84,1.14-7.71,3.11-12.95,4.63-6.07,1.76-10.86,2.41-14.5,2.89-6.75.89-11.91.96-13.72.96-6.05.02-9.08.04-13.14-.96-3.21-.79-7.89-1.93-12.37-5.79-4.66-4.01-6.67-8.86-7.54-11.58L32.08,16.18Z"/>
  <path class="cls-1" d="M146.41,26.5c-7.09,12.48-14.17,24.95-21.26,37.43-1.6-1.27-4.12-2.99-7.54-4.24-3.31-1.22-5.97-1.49-8.89-1.74-1.74-.15-6.24-.46-12.18.39-4.74.68-8.12,1.76-12.18,3.09-5.51,1.79-6.09,2.47-12.56,4.82-3.09,1.12-7.58,2.74-13.53,4.24-3.46.87-8.95,2.24-16.24,2.89-3.67.33-6.49.37-8.89.39-3.77.04-5.93.04-8.89-.39-2.03-.29-4.43-.64-7.34-1.74-1.87-.69-5.1-1.95-8.31-4.82-3.32-2.97-5.08-6.31-5.99-8.49l29.57-38.78c1.26,1.33,3.21,3.15,5.99,4.82.14.08.87.52,1.74.96,5.47,2.8,11.54,3.28,14.3,3.47,3.48.25,6.2.1,7.54,0,4.06-.31,6.88-1.02,11.4-2.12,2.36-.58,6.65-1.72,11.98-3.67,5.2-1.89,5.28-2.33,9.47-3.86,2.16-.79,7.31-2.53,14.11-3.67,3.85-.64,9.22-1.51,16.24-.96,2.47.19,4.08.31,5.99.77,2.86.69,9.28,2.89,15.46,11.19Z"/>
  <path class="cls-4" d="M32.26,3.83c.95,1.47,2.59,3.59,5.22,5.4.6.42,1.55,1.02,3.09,1.74,2.9,1.35,6.22,2.33,10.44,2.89,1.82.25,6.9.83,13.92,0,1.26-.15,5.41-.68,12.37-2.7,8.56-2.49,11.15-4.28,17.78-6.56,3.63-1.25,10.61-3.57,18.55-4.24,3.96-.33,16.22-1.51,24.93,3.47,3.83,2.2,6.57,5.21,6.57,5.21,1.89,2.1,3.11,4.13,3.87,5.6-7.67,13.31-15.33,26.63-23,39.94-1.18-1.08-2.94-2.51-5.32-3.76-3.5-1.85-6.51-2.43-8.6-2.8-4.17-.75-7.4-.56-10.05-.39-4.72.29-8.14,1.16-11.98,2.12-1.06.27-5.59,1.43-11.4,3.67-1.86.71-2.01.83-4.25,1.74-2.84,1.14-7.71,3.11-12.95,4.63-6.07,1.76-10.86,2.41-14.5,2.89-6.75.89-11.91.96-13.72.96-6.05.02-9.08.04-13.14-.96-3.21-.79-7.89-1.93-12.37-5.79C3.05,52.88,1.04,48.04.17,45.32L32.26,3.83Z"/>
  <path class="cls-3" d="M146.58,14.15c-7.09,12.48-14.17,24.95-21.26,37.43-1.6-1.27-4.12-2.99-7.54-4.24-3.31-1.22-5.97-1.49-8.89-1.74-1.74-.15-6.24-.46-12.18.39-4.74.68-8.12,1.76-12.18,3.09-5.51,1.79-6.09,2.47-12.56,4.82-3.09,1.12-7.58,2.74-13.53,4.24-3.46.87-8.95,2.24-16.24,2.89-3.67.33-6.49.37-8.89.39-3.77.04-5.93.04-8.89-.39-2.03-.29-4.43-.64-7.34-1.74-1.87-.69-5.1-1.95-8.31-4.82-3.32-2.97-5.08-6.31-5.99-8.49L32.36,7.21c1.26,1.33,3.21,3.16,5.99,4.82.14.08.87.52,1.74.96,5.47,2.8,11.54,3.28,14.3,3.47,3.48.25,6.2.1,7.54,0,4.06-.31,6.88-1.02,11.4-2.12,2.36-.58,6.65-1.72,11.98-3.67,5.2-1.89,5.28-2.33,9.47-3.86,2.16-.79,7.31-2.53,14.11-3.67,3.85-.64,9.22-1.51,16.24-.96,2.47.19,4.08.31,5.99.77,2.86.69,9.28,2.89,15.46,11.19Z"/>
  <g>
    <path class="cls-2" d="M41.77,36.88l3.36.44c-.46,2.05-.44,3.53.06,4.46s1.35,1.56,2.59,1.89c.91.23,1.74.25,2.49.02.77-.23,1.35-.66,1.8-1.27.43-.62.85-1.7,1.26-3.2l4.89-18.21,3.6.96-4.83,18.02c-.6,2.22-1.33,3.86-2.2,4.92s-1.99,1.76-3.36,2.08c-1.37.31-2.86.27-4.46-.17-2.4-.64-4.04-1.79-4.95-3.47-.91-1.68-.99-3.82-.23-6.44h0v-.02Z"/>
    <path class="cls-2" d="M94.71,29.98l.7-3.07,11.13,2.47-2.18,9.72c-2.01.98-4,1.6-5.97,1.89-1.97.27-3.9.21-5.82-.23-2.57-.58-4.79-1.66-6.67-3.22-1.86-1.58-3.09-3.53-3.69-5.85s-.62-4.79-.04-7.35c.58-2.55,1.64-4.8,3.21-6.79,1.57-1.97,3.48-3.26,5.72-3.9,2.24-.62,4.68-.64,7.29-.06,1.89.42,3.54,1.12,4.95,2.08,1.39.96,2.42,2.08,3.03,3.38s.97,2.87,1.02,4.75l-3.32.15c-.1-1.43-.35-2.59-.75-3.47-.41-.89-1.12-1.7-2.09-2.39s-2.15-1.2-3.46-1.51c-1.58-.35-3.02-.42-4.27-.19s-2.34.66-3.23,1.27-1.64,1.37-2.24,2.22c-1.02,1.47-1.76,3.15-2.18,5.06-.52,2.33-.56,4.38-.12,6.14s1.35,3.18,2.73,4.28,2.92,1.85,4.66,2.24c1.51.35,3.03.37,4.6.12,1.57-.25,2.78-.64,3.67-1.12l1.1-4.88-7.71-1.74h-.06Z"/>
  </g>
</svg>